<?xml version="1.0" encoding="UTF-8" standalone="no"?>
<!-- Created with Inkscape (http://www.inkscape.org/) -->

<svg
   class = "brand"
   fill="transparent"
   viewBox="0 0 40 40"
   version="1.1"
   id="svg1"
   inkscape:export-filename="bitmap.svg"
   inkscape:export-xdpi="211.67"
   inkscape:export-ydpi="211.67"
   xmlns:inkscape="http://www.inkscape.org/namespaces/inkscape"
   xmlns:sodipodi="http://sodipodi.sourceforge.net/DTD/sodipodi-0.dtd"
   xmlns="http://www.w3.org/2000/svg"
   xmlns:svg="http://www.w3.org/2000/svg">
  <sodipodi:namedview
     id="namedview1"
     pagecolor="#ffffff"
     bordercolor="#000000"
     borderopacity="0.25"
     inkscape:showpageshadow="2"
     inkscape:pageopacity="0.0"
     inkscape:pagecheckerboard="0"
     inkscape:deskcolor="#d1d1d1"
     inkscape:document-units="mm" />
  <defs
     id="defs1" />
  <g
     inkscape:label="Layer 1"
     inkscape:groupmode="layer"
     id="layer1">
    <path
       d="m 1.3048047,11.000291 a 18.695854,18 0 0 0 0.160197,2.349728 18.695854,18 0 0 0 0.476974,2.308903 18.695854,18 0 0 0 0.785998,2.229838 18.695854,18 0 0 0 1.081588,2.1115 18.695854,18 0 0 0 1.358573,1.957502 18.695854,18 0 0 0 1.612822,1.769918 18.695854,18 0 0 0 1.83813,1.552877 18.695854,18 0 0 0 2.0334663,1.30793 18.695854,18 0 0 0 2.193148,1.04128 18.695854,18 0 0 0 2.315621,0.756543 18.695854,18 0 0 0 2.39882,0.459404 18.695854,18 0 0 0 2.440161,0.153995 18.695854,18 0 0 0 2.440161,-0.153995 18.695854,18 0 0 0 2.398303,-0.459404 18.695854,18 0 0 0 2.315621,-0.756543 18.695854,18 0 0 0 2.193665,-1.04128 18.695854,18 0 0 0 2.032951,-1.30793 18.695854,18 0 0 0 1.838647,-1.552877 18.695854,18 0 0 0 1.612305,-1.769918 18.695854,18 0 0 0 1.358573,-1.957502 18.695854,18 0 0 0 1.081588,-2.1115 18.695854,18 0 0 0 0.786515,-2.229838 18.695854,18 0 0 0 0.476974,-2.308903 18.695854,18 0 0 0 0.15968,-2.349728 H 33.76277 a 13.763151,13.250891 0 0 1 -0.153479,1.975074 13.763151,13.250891 0 0 1 -0.457853,1.930631 13.763151,13.250891 0 0 1 -0.751375,1.843815 13.763151,13.250891 0 0 1 -1.028361,1.714624 13.763151,13.250891 0 0 1 -1.282609,1.548744 13.763151,13.250891 0 0 1 -1.507919,1.346687 13.763151,13.250891 0 0 1 -1.699637,1.115694 13.763151,13.250891 0 0 1 -1.853117,0.859379 13.763151,13.250891 0 0 1 -1.965772,0.583944 13.763151,13.250891 0 0 1 -2.033984,0.295072 13.763151,13.250891 0 0 1 -2.056722,0 13.763151,13.250891 0 0 1 -2.033984,-0.295072 13.763151,13.250891 0 0 1 -1.965772,-0.583944 13.763151,13.250891 0 0 1 -1.853117,-0.859379 13.763151,13.250891 0 0 1 -1.699638,-1.115694 13.763151,13.250891 0 0 1 -1.5079163,-1.346687 13.763151,13.250891 0 0 1 -1.282609,-1.548744 13.763151,13.250891 0 0 1 -1.028361,-1.714624 13.763151,13.250891 0 0 1 -0.751375,-1.843815 13.763151,13.250891 0 0 1 -0.457854,-1.930631 13.763151,13.250891 0 0 1 -0.153995,-1.975074 z"
       style="stroke-width:1;stroke-linejoin:miter;stroke-dasharray:none;stroke-opacity:1;paint-order:markers stroke fill"
       id="brand" />
  </g>
</svg>
